<svg width="160" height="160" viewBox="0 0 160 160" fill="none" xmlns="http://www.w3.org/2000/svg">
<path d="M79.9219 0C35.7715 0 0 35.7715 0 79.9219C0 124.072 35.7715 159.844 79.9219 159.844C124.072 159.844 159.844 124.072 159.844 79.9219C159.844 35.7715 124.072 0 79.9219 0ZM100.45 41.4756C102.899 37.8018 108.41 37.7051 110.988 41.4756C114.984 47.4053 115.854 53.3672 116.048 59.2969C115.887 65.2266 114.984 71.1885 110.988 77.1182C108.539 80.792 103.028 80.8887 100.45 77.1182C96.4541 71.1885 95.584 65.2266 95.3906 59.2969C95.5518 53.3672 96.4541 47.4053 100.45 41.4756ZM48.8877 41.4756C51.3369 37.8018 56.8477 37.7051 59.4258 41.4756C63.4219 47.4053 64.292 53.3672 64.4854 59.2969C64.3242 65.2266 63.4219 71.1885 59.4258 77.1182C56.9766 80.792 51.4658 80.8887 48.8877 77.1182C44.8916 71.1885 44.0215 65.2266 43.8281 59.2969C43.9893 53.3672 44.8916 47.4053 48.8877 41.4756ZM79.9219 136.641C60.3926 136.641 36.5771 124.298 33.5801 106.573C32.9355 102.771 36.5771 99.6123 40.251 100.805C49.9834 103.931 64.4531 105.703 79.9219 105.703C95.3906 105.703 109.86 103.931 119.593 100.805C123.267 99.6123 126.876 102.771 126.264 106.573C123.267 124.298 99.4512 136.641 79.9219 136.641Z" fill="#8556AA"/>
</svg>
