<svg width="165" height="145" viewBox="0 0 165 145" fill="none" xmlns="http://www.w3.org/2000/svg">
<path d="M103.189 68.5684L87.1729 100.602C85.2393 104.501 79.6318 104.372 77.8594 100.408L59.5225 59.7061L49.8545 82.8125H19.5293L78.3428 142.915C80.6309 145.268 84.3369 145.268 86.625 142.915L145.471 82.8125H110.312L103.189 68.5684ZM152.657 13.8154L151.884 13.0098C135.287 -3.94141 108.12 -3.94141 91.4912 13.0098L82.5 22.2266L73.5088 13.042C56.9121 -3.94141 29.7129 -3.94141 13.1162 13.042L12.3428 13.8154C-3.35156 29.8643 -4.02832 55.4199 9.99023 72.5H42.9902L54.5596 44.7207C56.2998 40.5635 62.165 40.4668 64.0342 44.5918L82.79 86.2607L98.5811 54.7109C100.482 50.9082 105.896 50.9082 107.798 54.7109L116.692 72.5H155.01C169.028 55.4199 168.352 29.8643 152.657 13.8154Z" fill="#8556AA"/>
</svg>
