<svg width="161" height="161" viewBox="0 0 161 161" fill="none" xmlns="http://www.w3.org/2000/svg">
<path d="M80.5 0.578125C36.3602 0.578125 0.578125 36.3602 0.578125 80.5C0.578125 124.64 36.3602 160.422 80.5 160.422C124.64 160.422 160.422 124.64 160.422 80.5C160.422 36.3602 124.64 0.578125 80.5 0.578125ZM136.476 39.1079L116.045 59.5392C112.504 53.5583 107.45 48.501 101.461 44.9551L121.892 24.5238C127.443 28.6426 132.357 33.5567 136.476 39.1079V39.1079ZM80.5 111.438C63.4138 111.438 49.5625 97.5862 49.5625 80.5C49.5625 63.4138 63.4138 49.5625 80.5 49.5625C97.5862 49.5625 111.438 63.4138 111.438 80.5C111.438 97.5862 97.5862 111.438 80.5 111.438ZM39.1079 24.5238L59.5392 44.9551C53.5583 48.4958 48.501 53.5499 44.9551 59.5392L24.5238 39.1079C28.6425 33.5566 33.5566 28.6425 39.1079 24.5238V24.5238ZM24.5238 121.892L44.9551 101.461C48.4958 107.442 53.5499 112.499 59.5392 116.045L39.1079 136.476C33.5567 132.357 28.6426 127.443 24.5238 121.892ZM121.892 136.476L101.461 116.045C107.442 112.504 112.499 107.45 116.045 101.461L136.476 121.892C132.357 127.443 127.443 132.357 121.892 136.476V136.476Z" fill="#8556AA"/>
</svg>
