<svg width="140" height="39" viewBox="0 0 140 39" fill="none" xmlns="http://www.w3.org/2000/svg">
<g clip-path="url(#clip0_794_879)">
<path fill-rule="evenodd" clip-rule="evenodd" d="M10.9066 0.2705C9.85697 0.0685406 8.25922 -0.073913 7.06091 0.0414925C9.99848 0.824086 12.8089 2.27928 14.9368 4.50624C19.1497 8.91689 19.0781 14.8675 13.5343 17.502C13.0668 17.7238 12.9737 17.9618 13.3516 18.3657C15.3882 20.7586 19.5509 21.6007 23.2659 20.452C25.8506 19.6514 28.9637 17.2982 29.5046 15.0081C29.5046 14.9216 29.5028 14.835 29.4975 14.7485C29.3649 12.4602 27.4125 10.2188 25.8846 8.65182C24.045 6.76747 19.053 1.8411 10.9066 0.2705Z" fill="white"/>
<path d="M17.9496 22.2769C8.00306 21.4691 10.5913 11.6398 10.5913 11.6398C12.5814 11.5568 15.5494 12.8461 16.814 13.4448C17.8475 10.6606 16.8946 7.2796 14.2454 4.50626C12.1461 2.30815 9.38049 0.86378 6.48591 0.0739746C-0.0806186 0.885419 -1.47553e-05 14.9036 -1.47553e-05 14.9036C-0.0107619 30.5374 6.87102 30.0073 7.80603 29.9964C17.9496 29.8774 29.5046 19.9147 29.5028 15.0046C29.5046 15.0027 26.7694 22.9928 17.9496 22.2769Z" fill="white"/>
<path d="M112.328 5.26721C112.72 5.26721 113.05 5.40426 113.32 5.67474C113.591 5.94702 113.727 6.28062 113.727 6.67552C113.727 7.07042 113.591 7.40401 113.32 7.6763C113.05 7.94858 112.718 8.08383 112.328 8.08383C111.936 8.08383 111.604 7.94858 111.334 7.6763C111.063 7.40401 110.927 7.07042 110.927 6.67552C110.927 6.28062 111.063 5.94702 111.334 5.67474C111.604 5.40245 111.936 5.26721 112.328 5.26721Z" fill="white"/>
<path d="M113.148 10.1954C112.931 9.97897 112.668 9.86897 112.36 9.86176C112.349 9.86176 112.338 9.85815 112.328 9.85815C112.278 9.85815 112.233 9.86537 112.184 9.87078C112.161 9.87258 112.136 9.87258 112.115 9.87799C112.1 9.87979 112.086 9.8834 112.073 9.88701C111.858 9.93209 111.67 10.0331 111.507 10.1972C111.283 10.4226 111.172 10.6966 111.172 11.023V20.1058H113.483V11.0212C113.483 10.6966 113.37 10.4208 113.148 10.1954Z" fill="white"/>
<path d="M94.242 11.6559C94.0522 11.2466 93.7727 10.8896 93.4002 10.5848C93.0276 10.2783 92.5726 10.0331 92.0317 9.84913C91.4907 9.66521 90.8692 9.57324 90.1671 9.57324C89.37 9.57324 88.6374 9.70668 87.9675 9.97175C87.2993 10.2368 86.7172 10.6119 86.2246 11.0933C85.7303 11.5766 85.3452 12.1554 85.0693 12.828C84.7917 13.5006 84.6537 14.2472 84.6537 15.0622C84.6537 15.9187 84.7953 16.6779 85.0801 17.3379C85.3649 17.9978 85.7518 18.555 86.2461 19.0112C86.7387 19.4675 87.3137 19.8101 87.9693 20.0427C88.6248 20.2735 89.3306 20.3889 90.0882 20.3889C90.6292 20.3889 91.1253 20.3474 91.5785 20.2663C92.0317 20.1851 92.4311 20.0896 92.775 19.9796C92.9434 19.9255 93.0974 19.8714 93.239 19.8155C93.2407 19.8137 93.2443 19.8137 93.2461 19.8137C93.3554 19.7686 93.4557 19.7001 93.547 19.6099C93.728 19.4278 93.8193 19.2042 93.8193 18.9409C93.8193 18.8255 93.7996 18.7191 93.7638 18.6199C93.7351 18.537 93.6939 18.4595 93.642 18.3855C93.6133 18.3459 93.5829 18.3062 93.547 18.2701C93.3661 18.088 93.144 17.9978 92.8825 17.9978C92.7517 17.9978 92.63 18.0213 92.5207 18.0664C92.5207 18.0664 92.5207 18.0664 92.5189 18.0664C92.4508 18.0916 92.3846 18.1187 92.3093 18.1439C92.0729 18.225 91.806 18.2936 91.5087 18.3477C91.2113 18.4018 90.8871 18.4288 90.536 18.4288C89.4954 18.4288 88.6947 18.2142 88.134 17.7851C87.5734 17.3559 87.2384 16.7951 87.131 16.1009C87.4014 16.1135 87.654 16.1243 87.8904 16.1315C88.1269 16.1387 88.3794 16.1405 88.6499 16.1405C89.8124 16.1405 90.7725 16.063 91.5284 15.9061C92.286 15.7492 92.8861 15.5329 93.3321 15.2534C93.7781 14.9757 94.0898 14.6403 94.2653 14.2544C94.4409 13.8667 94.5286 13.4339 94.5286 12.9579C94.525 12.498 94.4301 12.0635 94.242 11.6559ZM92.1535 13.5133C92.0729 13.7044 91.9027 13.8739 91.6466 14.0236C91.3904 14.1732 91.0322 14.2958 90.5719 14.3914C90.1115 14.487 89.5115 14.5339 88.7681 14.5339C88.4833 14.5339 88.2003 14.5339 87.9173 14.5339C87.6325 14.5339 87.3352 14.5267 87.0253 14.514C87.0378 14.1191 87.1166 13.7314 87.2581 13.351C87.3997 12.9705 87.6003 12.6333 87.8564 12.3412C88.1126 12.0491 88.4314 11.8146 88.8093 11.6379C89.1873 11.4612 89.6261 11.3728 90.1277 11.3728C90.7367 11.3728 91.2454 11.5027 91.6573 11.7605C92.0693 12.0184 92.2753 12.4061 92.2753 12.9236C92.2753 13.1238 92.2341 13.3221 92.1535 13.5133Z" fill="white"/>
<path d="M107.663 5.40604C107.441 5.18425 107.171 5.07245 106.85 5.07245C106.53 5.07245 106.257 5.18425 106.037 5.40604C105.817 5.62784 105.707 5.89832 105.706 6.21929C105.706 6.22109 105.706 6.2229 105.706 6.2265C105.706 6.22831 105.706 6.23011 105.706 6.23372V11.1475C105.367 10.7111 104.901 10.3414 104.307 10.0349C103.712 9.72833 103.022 9.57506 102.24 9.57506C101.496 9.57506 100.81 9.7085 100.182 9.97357C99.5529 10.2386 99.0048 10.6137 98.5391 11.0952C98.0734 11.5784 97.708 12.15 97.4447 12.81C97.1814 13.47 97.0488 14.1949 97.0488 14.9829C97.0488 15.7583 97.1868 16.4795 97.4644 17.1467C97.7402 17.8139 98.1236 18.3855 98.6108 18.8616C99.098 19.3376 99.6747 19.7127 100.345 19.9832C101.015 20.2555 101.747 20.3925 102.544 20.3925C103.329 20.3925 104.051 20.2699 104.713 20.0247C105.376 19.7794 105.949 19.4116 106.436 18.9229C106.924 18.4324 107.305 17.8211 107.583 17.0854C107.86 16.3497 107.998 15.486 107.998 14.4924V6.2247C107.997 5.90192 107.886 5.62784 107.663 5.40604ZM105.471 16.3281C105.315 16.7374 105.102 17.0836 104.832 17.3685C104.561 17.6534 104.233 17.8788 103.848 18.0411C103.463 18.2052 103.04 18.2864 102.582 18.2864C102.109 18.2864 101.683 18.2016 101.305 18.0321C100.927 17.8626 100.599 17.6318 100.321 17.3379C100.044 17.0458 99.8306 16.6977 99.6837 16.2974C99.535 15.8953 99.4598 15.4571 99.4598 14.9811C99.4598 14.505 99.5332 14.0632 99.6837 13.6539C99.8324 13.2464 100.046 12.8966 100.321 12.6026C100.599 12.3105 100.927 12.0797 101.305 11.9084C101.683 11.7371 102.109 11.6542 102.582 11.6542C103.04 11.6542 103.463 11.7389 103.848 11.9084C104.233 12.0779 104.561 12.3141 104.832 12.6117C105.102 12.911 105.315 13.2644 105.471 13.6738C105.627 14.0831 105.704 14.5177 105.704 14.9793C105.704 15.4716 105.627 15.9206 105.471 16.3281Z" fill="white"/>
<path d="M69.2781 12.0942C69.0345 11.5568 68.6942 11.1006 68.2535 10.7273C67.8147 10.3541 67.2899 10.0673 66.6827 9.8708C66.0737 9.67425 65.4127 9.57507 64.6962 9.57507C63.9798 9.57507 63.3206 9.67425 62.7187 9.8708C62.1169 10.0673 61.5975 10.3541 61.1586 10.7273C60.7198 11.1024 60.3741 11.5586 60.1251 12.0942C59.8743 12.6315 59.7507 13.241 59.7507 13.9208V18.9427C59.7507 19.2691 59.8618 19.5432 60.0857 19.7686C60.3096 19.994 60.5819 20.1058 60.9061 20.1058C61.2303 20.1058 61.5025 19.994 61.7264 19.7686C61.9503 19.5432 62.0614 19.2691 62.0614 18.9427V14.5123C62.0614 13.5872 62.2817 12.8822 62.7205 12.3989C63.1594 11.9156 63.8185 11.674 64.698 11.674C65.5632 11.674 66.2187 11.9156 66.6648 12.3989C67.1108 12.8822 67.3347 13.5872 67.3347 14.5123V18.9409C67.3347 19.2673 67.4457 19.5414 67.6696 19.7668C67.8935 19.9922 68.1658 20.104 68.49 20.104C68.8142 20.104 69.0865 19.9922 69.3104 19.7668C69.5343 19.5414 69.6453 19.2673 69.6453 18.9409V13.9208C69.6435 13.241 69.5217 12.6315 69.2781 12.0942Z" fill="white"/>
<path d="M81.4314 14.9522C80.8099 14.4834 79.9376 14.1733 78.8163 14.0236L76.7474 13.7585C76.194 13.6918 75.7676 13.5638 75.4703 13.3816C75.173 13.1977 75.0243 12.929 75.0243 12.5756C75.0243 11.7461 75.8088 11.3314 77.3761 11.3314C77.944 11.3314 78.4437 11.3765 78.8772 11.463C79.3088 11.5514 79.6814 11.6542 79.9931 11.7696C80.045 11.7894 80.0844 11.8074 80.131 11.8273C80.1525 11.8381 80.174 11.8471 80.1973 11.8543C80.2958 11.8904 80.4015 11.9102 80.5161 11.9102C80.7705 11.9102 80.9854 11.8219 81.1609 11.6452C81.3365 11.4684 81.4242 11.2521 81.4242 10.996C81.4242 10.7399 81.3365 10.5236 81.1609 10.3468C81.0732 10.2585 80.9764 10.1936 80.8708 10.1503C80.869 10.1503 80.869 10.1485 80.8672 10.1485C80.792 10.1124 80.7167 10.0764 80.6325 10.0439C79.8552 9.73015 78.7643 9.57507 77.3582 9.57507C76.52 9.57507 75.8071 9.65982 75.2195 9.82933C74.632 10.0006 74.1556 10.235 73.7902 10.5326C73.4248 10.8319 73.1579 11.1763 72.9895 11.564C72.8211 11.9517 72.7369 12.3628 72.7369 12.7992C72.7369 13.3023 72.8283 13.7351 73.011 14.0957C73.1937 14.4564 73.4463 14.7593 73.7705 15.0045C74.0947 15.2498 74.4834 15.4427 74.9365 15.587C75.3897 15.7294 75.8859 15.8286 76.4268 15.8827L78.0084 16.0666C78.7375 16.1478 79.2444 16.2884 79.5292 16.485C79.8122 16.6815 79.9555 16.9718 79.9555 17.3523C79.9555 17.8013 79.7316 18.1169 79.2856 18.3008C78.8396 18.4847 78.2646 18.5767 77.5624 18.5767C77.0215 18.5767 76.5217 18.537 76.0614 18.4541C75.6011 18.3711 75.1927 18.2737 74.8344 18.1583C74.5837 18.0772 74.3723 17.9997 74.1771 17.9221C74.1663 17.9167 74.1556 17.9131 74.1448 17.9095C74.0427 17.8698 73.9317 17.8482 73.8117 17.8482C73.5573 17.8482 73.3424 17.9365 73.1686 18.1115C72.9931 18.2882 72.9053 18.5028 72.9053 18.7588C72.9053 19.0149 72.9931 19.2294 73.1686 19.4062C73.2528 19.4927 73.3477 19.5558 73.4516 19.5991C73.457 19.6009 73.4624 19.6045 73.4695 19.6063C73.6684 19.6875 73.8905 19.7686 74.1448 19.8516C74.5837 19.994 75.1013 20.1202 75.696 20.2284C76.2907 20.3366 76.9534 20.3925 77.6824 20.3925C79.196 20.3925 80.3549 20.086 81.1592 19.4747C81.9634 18.8616 82.3664 18.0465 82.3664 17.0259C82.3646 16.1117 82.053 15.4211 81.4314 14.9522Z" fill="white"/>
<path d="M43.6962 14.9522C43.0747 14.4834 42.2024 14.1733 41.0811 14.0236L39.0123 13.7585C38.4588 13.6918 38.0325 13.5638 37.7351 13.3816C37.4378 13.1977 37.2891 12.929 37.2891 12.5756C37.2891 11.7461 38.0737 11.3314 39.641 11.3314C40.2088 11.3314 40.7085 11.3765 41.142 11.463C41.5737 11.5514 41.9462 11.6542 42.2579 11.7696C42.3099 11.7894 42.3493 11.8074 42.3958 11.8273C42.4173 11.8381 42.4388 11.8471 42.4621 11.8543C42.5606 11.8904 42.6663 11.9102 42.7809 11.9102C43.0353 11.9102 43.2502 11.8219 43.4258 11.6452C43.6013 11.4684 43.6891 11.2521 43.6891 10.996C43.6891 10.7399 43.6013 10.5236 43.4258 10.3468C43.338 10.2585 43.2413 10.1936 43.1356 10.1503C43.1338 10.1503 43.1338 10.1485 43.132 10.1485C43.0568 10.1124 42.9816 10.0764 42.8974 10.0439C42.12 9.73015 41.0292 9.57507 39.6231 9.57507C38.7848 9.57507 38.0719 9.65982 37.4844 9.82933C36.8969 10.0006 36.4204 10.235 36.055 10.5326C35.6896 10.8319 35.4227 11.1763 35.2543 11.564C35.086 11.9517 35.0018 12.3628 35.0018 12.7992C35.0018 13.3023 35.0931 13.7351 35.2758 14.0957C35.4585 14.4564 35.7111 14.7593 36.0353 15.0045C36.3595 15.2498 36.7482 15.4427 37.2014 15.587C37.6545 15.7294 38.1507 15.8286 38.6916 15.8827L40.2733 16.0666C41.0023 16.1478 41.5092 16.2884 41.794 16.485C42.077 16.6815 42.2203 16.9718 42.2203 17.3523C42.2203 17.8013 41.9964 18.1169 41.5504 18.3008C41.1044 18.4847 40.5294 18.5767 39.8273 18.5767C39.2863 18.5767 38.7866 18.537 38.3262 18.4541C37.8659 18.3711 37.4575 18.2737 37.0993 18.1583C36.8485 18.0772 36.6371 17.9997 36.4419 17.9221C36.4311 17.9167 36.4204 17.9131 36.4097 17.9095C36.3076 17.8698 36.1965 17.8482 36.0765 17.8482C35.8221 17.8482 35.6072 17.9365 35.4334 18.1115C35.2579 18.2882 35.1701 18.5028 35.1701 18.7588C35.1701 19.0149 35.2579 19.2294 35.4334 19.4062C35.5176 19.4927 35.6126 19.5558 35.7165 19.5991C35.7218 19.6009 35.7272 19.6045 35.7344 19.6063C35.9332 19.6875 36.1553 19.7686 36.4097 19.8516C36.8485 19.994 37.3661 20.1202 37.9608 20.2284C38.5555 20.3366 39.2182 20.3925 39.9473 20.3925C41.4608 20.3925 42.6197 20.086 43.424 19.4747C44.2282 18.8616 44.6312 18.0465 44.6312 17.0259C44.6295 16.1117 44.3178 15.4211 43.6962 14.9522Z" fill="white"/>
<path d="M56.6269 11.6559C56.4371 11.2466 56.1576 10.8896 55.7851 10.5848C55.4125 10.2783 54.9575 10.0331 54.4166 9.84913C53.8756 9.66521 53.2541 9.57324 52.5519 9.57324C51.7549 9.57324 51.0223 9.70668 50.3524 9.97175C49.6842 10.2368 49.1021 10.6119 48.6095 11.0933C48.1151 11.5766 47.73 12.1554 47.4542 12.828C47.1766 13.5006 47.0386 14.2472 47.0386 15.0622C47.0386 15.9187 47.1801 16.6779 47.4649 17.3379C47.7497 17.9978 48.1366 18.555 48.631 19.0112C49.1236 19.4675 49.6986 19.8101 50.3541 20.0427C51.0097 20.2735 51.7155 20.3889 52.4731 20.3889C53.0141 20.3889 53.5102 20.3474 53.9634 20.2663C54.4166 20.1851 54.816 20.0896 55.1599 19.9796C55.3283 19.9255 55.4823 19.8714 55.6239 19.8155C55.6256 19.8137 55.6292 19.8137 55.631 19.8137C55.7403 19.7686 55.8406 19.7001 55.9319 19.6099C56.1128 19.4278 56.2042 19.2042 56.2042 18.9409C56.2042 18.8255 56.1845 18.7191 56.1487 18.6199C56.12 18.537 56.0788 18.4595 56.0269 18.3855C55.9982 18.3459 55.9678 18.3062 55.9319 18.2701C55.751 18.088 55.5289 17.9978 55.2674 17.9978C55.1366 17.9978 55.0148 18.0213 54.9056 18.0664C54.9056 18.0664 54.9056 18.0664 54.9038 18.0664C54.8357 18.0916 54.7694 18.1187 54.6942 18.1439C54.4578 18.225 54.1909 18.2936 53.8936 18.3477C53.5962 18.4018 53.272 18.4288 52.9209 18.4288C51.8802 18.4288 51.0796 18.2142 50.5189 17.7851C49.9583 17.3559 49.6233 16.7951 49.5159 16.1009C49.7863 16.1135 50.0389 16.1243 50.2753 16.1315C50.5118 16.1387 50.7643 16.1405 51.0348 16.1405C52.1973 16.1405 53.1574 16.063 53.9133 15.9061C54.6709 15.7492 55.271 15.5329 55.717 15.2534C56.163 14.9757 56.4747 14.6403 56.6502 14.2544C56.8257 13.8667 56.9135 13.4339 56.9135 12.9579C56.9099 12.498 56.815 12.0635 56.6269 11.6559ZM54.5384 13.5133C54.4578 13.7044 54.2876 13.8739 54.0315 14.0236C53.7753 14.1732 53.4171 14.2958 52.9568 14.3914C52.4964 14.487 51.8964 14.5339 51.153 14.5339C50.8682 14.5339 50.5852 14.5339 50.3022 14.5339C50.0174 14.5339 49.7201 14.5267 49.4102 14.514C49.4227 14.1191 49.5015 13.7314 49.643 13.351C49.7845 12.9705 49.9852 12.6333 50.2413 12.3412C50.4974 12.0491 50.8163 11.8146 51.1942 11.6379C51.5722 11.4612 52.011 11.3728 52.5125 11.3728C53.1215 11.3728 53.6302 11.5027 54.0422 11.7605C54.4542 12.0184 54.6602 12.4061 54.6602 12.9236C54.6602 13.1238 54.619 13.3221 54.5384 13.5133Z" fill="white"/>
<path d="M126 13.9208C126 13.131 125.869 12.4584 125.604 11.9012C125.341 11.344 124.972 10.895 124.499 10.5542C124.026 10.2134 123.462 9.96637 122.806 9.80949C122.151 9.65261 121.423 9.57507 120.626 9.57507C119.964 9.57507 119.417 9.61655 118.984 9.69769C118.55 9.77884 118.206 9.89244 117.95 10.0349C117.902 10.0619 117.861 10.089 117.818 10.1178C117.803 10.1269 117.789 10.1341 117.775 10.1449C117.73 10.1755 117.687 10.2098 117.648 10.2513C117.472 10.428 117.383 10.6462 117.383 10.9022C117.383 11.1601 117.47 11.3765 117.648 11.5532C117.823 11.7299 118.04 11.8183 118.294 11.8183C118.418 11.8183 118.532 11.7966 118.636 11.7552C118.644 11.7534 118.649 11.7497 118.656 11.7479C118.683 11.7371 118.703 11.7281 118.731 11.7191C119.197 11.5424 119.817 11.454 120.587 11.454C121.047 11.454 121.466 11.4883 121.844 11.5568C122.222 11.6253 122.547 11.7479 122.817 11.9247C123.087 12.1014 123.301 12.3466 123.456 12.6604C123.612 12.9741 123.689 13.3672 123.689 13.8433C123.46 13.8162 123.114 13.7856 122.656 13.7513C122.195 13.717 121.71 13.7008 121.196 13.7008C120.304 13.7008 119.546 13.7729 118.925 13.9154C118.303 14.0579 117.8 14.2724 117.415 14.5573C117.03 14.8441 116.752 15.1975 116.584 15.6194C116.413 16.0414 116.329 16.5319 116.329 17.089C116.329 17.511 116.401 17.9221 116.542 18.3243C116.684 18.7264 116.947 19.0798 117.332 19.3863C117.717 19.6929 118.244 19.9381 118.914 20.122C119.584 20.306 120.445 20.3979 121.499 20.3979C122.025 20.3979 122.532 20.3835 123.019 20.3565C123.507 20.3294 123.945 20.2988 124.338 20.2645C124.508 20.2501 124.666 20.2357 124.816 20.2194C125.147 20.1924 125.427 20.104 125.656 19.8714C125.885 19.6406 126 19.3557 126 19.0203C126 19.0149 125.998 19.0095 125.998 19.0041H126V13.9208ZM123.709 18.5136C123.587 18.5406 123.344 18.5785 122.978 18.6254C122.613 18.6723 122.12 18.6975 121.499 18.6975C120.943 18.6975 120.481 18.6596 120.11 18.5857C119.738 18.5118 119.444 18.4018 119.229 18.2593C119.012 18.1169 118.86 17.942 118.772 17.7382C118.685 17.5344 118.64 17.309 118.64 17.0638C118.64 16.4651 118.849 16.027 119.269 15.7475C119.688 15.468 120.356 15.3291 121.277 15.3291C122.02 15.3291 122.577 15.3562 122.95 15.4103C123.32 15.4644 123.575 15.5058 123.709 15.5329V18.5136Z" fill="white"/>
</g>
<path d="M24.0912 36V29.257H21.4512V28.3H27.8202V29.257H25.1802V36H24.0912ZM28.7246 36V30.17H29.7366V31.754L29.6376 31.358C29.799 30.9547 30.0703 30.6467 30.4516 30.434C30.833 30.2213 31.3023 30.115 31.8596 30.115V31.138C31.8156 31.1307 31.7716 31.127 31.7276 31.127C31.691 31.127 31.6543 31.127 31.6176 31.127C31.053 31.127 30.6056 31.2957 30.2756 31.633C29.9456 31.9703 29.7806 32.458 29.7806 33.096V36H28.7246ZM35.7034 36.066C35.0801 36.066 34.5301 35.9377 34.0534 35.681C33.5841 35.4243 33.2174 35.0723 32.9534 34.625C32.6968 34.1777 32.5684 33.6643 32.5684 33.085C32.5684 32.5057 32.6931 31.9923 32.9424 31.545C33.1991 31.0977 33.5474 30.7493 33.9874 30.5C34.4348 30.2433 34.9371 30.115 35.4944 30.115C36.0591 30.115 36.5578 30.2397 36.9904 30.489C37.4231 30.7383 37.7604 31.0903 38.0024 31.545C38.2518 31.9923 38.3764 32.5167 38.3764 33.118C38.3764 33.162 38.3728 33.2133 38.3654 33.272C38.3654 33.3307 38.3618 33.3857 38.3544 33.437H33.3934V32.678H37.8044L37.3754 32.942C37.3828 32.568 37.3058 32.2343 37.1444 31.941C36.9831 31.6477 36.7594 31.4203 36.4734 31.259C36.1948 31.0903 35.8684 31.006 35.4944 31.006C35.1278 31.006 34.8014 31.0903 34.5154 31.259C34.2294 31.4203 34.0058 31.6513 33.8444 31.952C33.6831 32.2453 33.6024 32.5827 33.6024 32.964V33.14C33.6024 33.5287 33.6904 33.877 33.8664 34.185C34.0498 34.4857 34.3028 34.7203 34.6254 34.889C34.9481 35.0577 35.3184 35.142 35.7364 35.142C36.0811 35.142 36.3928 35.0833 36.6714 34.966C36.9574 34.8487 37.2068 34.6727 37.4194 34.438L38.0024 35.12C37.7384 35.428 37.4084 35.6627 37.0124 35.824C36.6238 35.9853 36.1874 36.066 35.7034 36.066ZM39.8428 36V30.17H40.8988V36H39.8428ZM40.3708 29.048C40.1655 29.048 39.9931 28.982 39.8538 28.85C39.7218 28.718 39.6558 28.5567 39.6558 28.366C39.6558 28.168 39.7218 28.003 39.8538 27.871C39.9931 27.739 40.1655 27.673 40.3708 27.673C40.5761 27.673 40.7448 27.739 40.8768 27.871C41.0161 27.9957 41.0858 28.1533 41.0858 28.344C41.0858 28.542 41.0198 28.7107 40.8878 28.85C40.7558 28.982 40.5835 29.048 40.3708 29.048ZM46.0281 30.115C46.5047 30.115 46.9227 30.2067 47.2821 30.39C47.6487 30.5733 47.9347 30.852 48.1401 31.226C48.3454 31.6 48.4481 32.073 48.4481 32.645V36H47.3921V32.766C47.3921 32.2013 47.2527 31.776 46.9741 31.49C46.7027 31.204 46.3177 31.061 45.8191 31.061C45.4451 31.061 45.1187 31.1343 44.8401 31.281C44.5614 31.4277 44.3451 31.644 44.1911 31.93C44.0444 32.216 43.9711 32.5717 43.9711 32.997V36H42.9151V30.17H43.9271V31.743L43.7621 31.325C43.9527 30.9437 44.2461 30.6467 44.6421 30.434C45.0381 30.2213 45.5001 30.115 46.0281 30.115ZM54.0214 36V34.768L53.9664 34.537V32.436C53.9664 31.9887 53.8344 31.644 53.5704 31.402C53.3137 31.1527 52.925 31.028 52.4044 31.028C52.0597 31.028 51.7224 31.0867 51.3924 31.204C51.0624 31.314 50.7837 31.4643 50.5564 31.655L50.1164 30.863C50.417 30.621 50.7764 30.4377 51.1944 30.313C51.6197 30.181 52.0634 30.115 52.5254 30.115C53.3247 30.115 53.9407 30.3093 54.3734 30.698C54.806 31.0867 55.0224 31.6807 55.0224 32.48V36H54.0214ZM52.1074 36.066C51.6747 36.066 51.2934 35.9927 50.9634 35.846C50.6407 35.6993 50.3914 35.4977 50.2154 35.241C50.0394 34.977 49.9514 34.68 49.9514 34.35C49.9514 34.0347 50.0247 33.7487 50.1714 33.492C50.3254 33.2353 50.571 33.03 50.9084 32.876C51.253 32.722 51.715 32.645 52.2944 32.645H54.1424V33.404H52.3384C51.8104 33.404 51.4547 33.492 51.2714 33.668C51.088 33.844 50.9964 34.0567 50.9964 34.306C50.9964 34.592 51.11 34.823 51.3374 34.999C51.5647 35.1677 51.88 35.252 52.2834 35.252C52.6794 35.252 53.024 35.164 53.3174 34.988C53.618 34.812 53.8344 34.5553 53.9664 34.218L54.1754 34.944C54.036 35.2887 53.7904 35.5637 53.4384 35.769C53.0864 35.967 52.6427 36.066 52.1074 36.066ZM59.3856 36.066C58.8209 36.066 58.3149 35.9413 57.8676 35.692C57.4276 35.4427 57.0793 35.0943 56.8226 34.647C56.5659 34.1997 56.4376 33.679 56.4376 33.085C56.4376 32.491 56.5659 31.974 56.8226 31.534C57.0793 31.0867 57.4276 30.7383 57.8676 30.489C58.3149 30.2397 58.8209 30.115 59.3856 30.115C59.8769 30.115 60.3206 30.225 60.7166 30.445C61.1126 30.665 61.4279 30.995 61.6626 31.435C61.9046 31.875 62.0256 32.425 62.0256 33.085C62.0256 33.745 61.9083 34.295 61.6736 34.735C61.4463 35.175 61.1346 35.5087 60.7386 35.736C60.3426 35.956 59.8916 36.066 59.3856 36.066ZM59.4736 35.142C59.8403 35.142 60.1703 35.0577 60.4636 34.889C60.7643 34.7203 60.9989 34.482 61.1676 34.174C61.3436 33.8587 61.4316 33.4957 61.4316 33.085C61.4316 32.667 61.3436 32.3077 61.1676 32.007C60.9989 31.699 60.7643 31.4607 60.4636 31.292C60.1703 31.1233 59.8403 31.039 59.4736 31.039C59.0996 31.039 58.7659 31.1233 58.4726 31.292C58.1793 31.4607 57.9446 31.699 57.7686 32.007C57.5926 32.3077 57.5046 32.667 57.5046 33.085C57.5046 33.4957 57.5926 33.8587 57.7686 34.174C57.9446 34.482 58.1793 34.7203 58.4726 34.889C58.7659 35.0577 59.0996 35.142 59.4736 35.142ZM61.4646 36V34.427L61.5306 33.074L61.4206 31.721V27.838H62.4766V36H61.4646ZM66.9716 36.066C66.385 36.066 65.8643 35.9377 65.4096 35.681C64.955 35.4243 64.5956 35.0723 64.3316 34.625C64.0676 34.1703 63.9356 33.657 63.9356 33.085C63.9356 32.5057 64.0676 31.9923 64.3316 31.545C64.5956 31.0977 64.955 30.7493 65.4096 30.5C65.8643 30.2433 66.385 30.115 66.9716 30.115C67.551 30.115 68.068 30.2433 68.5226 30.5C68.9846 30.7493 69.344 31.0977 69.6006 31.545C69.8646 31.985 69.9966 32.4983 69.9966 33.085C69.9966 33.6643 69.8646 34.1777 69.6006 34.625C69.344 35.0723 68.9846 35.4243 68.5226 35.681C68.068 35.9377 67.551 36.066 66.9716 36.066ZM66.9716 35.142C67.3456 35.142 67.6793 35.0577 67.9726 34.889C68.2733 34.7203 68.508 34.482 68.6766 34.174C68.8453 33.8587 68.9296 33.4957 68.9296 33.085C68.9296 32.667 68.8453 32.3077 68.6766 32.007C68.508 31.699 68.2733 31.4607 67.9726 31.292C67.6793 31.1233 67.3456 31.039 66.9716 31.039C66.5976 31.039 66.264 31.1233 65.9706 31.292C65.6773 31.4607 65.4426 31.699 65.2666 32.007C65.0906 32.3077 65.0026 32.667 65.0026 33.085C65.0026 33.4957 65.0906 33.8587 65.2666 34.174C65.4426 34.482 65.6773 34.7203 65.9706 34.889C66.264 35.0577 66.5976 35.142 66.9716 35.142ZM71.4571 36V30.17H72.4691V31.754L72.3701 31.358C72.5314 30.9547 72.8027 30.6467 73.1841 30.434C73.5654 30.2213 74.0347 30.115 74.5921 30.115V31.138C74.5481 31.1307 74.5041 31.127 74.4601 31.127C74.4234 31.127 74.3867 31.127 74.3501 31.127C73.7854 31.127 73.3381 31.2957 73.0081 31.633C72.6781 31.9703 72.5131 32.458 72.5131 33.096V36H71.4571ZM79.0769 36V28.3H82.3219C83.1432 28.3 83.8655 28.4613 84.4889 28.784C85.1195 29.1067 85.6072 29.5577 85.9519 30.137C86.3039 30.7163 86.4799 31.3873 86.4799 32.15C86.4799 32.9127 86.3039 33.5837 85.9519 34.163C85.6072 34.7423 85.1195 35.1933 84.4889 35.516C83.8655 35.8387 83.1432 36 82.3219 36H79.0769ZM80.1769 35.043H82.2559C82.8939 35.043 83.4439 34.922 83.9059 34.68C84.3752 34.438 84.7382 34.1007 84.9949 33.668C85.2515 33.228 85.3799 32.722 85.3799 32.15C85.3799 31.5707 85.2515 31.0647 84.9949 30.632C84.7382 30.1993 84.3752 29.862 83.9059 29.62C83.4439 29.378 82.8939 29.257 82.2559 29.257H80.1769V35.043ZM90.6068 36.066C89.9834 36.066 89.4334 35.9377 88.9568 35.681C88.4874 35.4243 88.1208 35.0723 87.8568 34.625C87.6001 34.1777 87.4718 33.6643 87.4718 33.085C87.4718 32.5057 87.5964 31.9923 87.8458 31.545C88.1024 31.0977 88.4508 30.7493 88.8908 30.5C89.3381 30.2433 89.8404 30.115 90.3978 30.115C90.9624 30.115 91.4611 30.2397 91.8938 30.489C92.3264 30.7383 92.6638 31.0903 92.9058 31.545C93.1551 31.9923 93.2798 32.5167 93.2798 33.118C93.2798 33.162 93.2761 33.2133 93.2688 33.272C93.2688 33.3307 93.2651 33.3857 93.2578 33.437H88.2968V32.678H92.7078L92.2788 32.942C92.2861 32.568 92.2091 32.2343 92.0478 31.941C91.8864 31.6477 91.6628 31.4203 91.3768 31.259C91.0981 31.0903 90.7718 31.006 90.3978 31.006C90.0311 31.006 89.7048 31.0903 89.4188 31.259C89.1328 31.4203 88.9091 31.6513 88.7478 31.952C88.5864 32.2453 88.5058 32.5827 88.5058 32.964V33.14C88.5058 33.5287 88.5938 33.877 88.7698 34.185C88.9531 34.4857 89.2061 34.7203 89.5288 34.889C89.8514 35.0577 90.2218 35.142 90.6398 35.142C90.9844 35.142 91.2961 35.0833 91.5748 34.966C91.8608 34.8487 92.1101 34.6727 92.3228 34.438L92.9058 35.12C92.6418 35.428 92.3118 35.6627 91.9158 35.824C91.5271 35.9853 91.0908 36.066 90.6068 36.066ZM98.8442 31.941H102.815V32.887H98.8442V31.941ZM98.9542 36H97.8542V28.3H103.288V29.257H98.9542V36ZM106.953 36.066C106.454 36.066 106.014 35.9743 105.633 35.791C105.259 35.6077 104.966 35.329 104.753 34.955C104.548 34.5737 104.445 34.097 104.445 33.525V30.17H105.501V33.404C105.501 33.976 105.637 34.405 105.908 34.691C106.187 34.977 106.575 35.12 107.074 35.12C107.441 35.12 107.76 35.0467 108.031 34.9C108.302 34.746 108.511 34.526 108.658 34.24C108.805 33.9467 108.878 33.5947 108.878 33.184V30.17H109.934V36H108.933V34.427L109.098 34.845C108.907 35.2337 108.621 35.5343 108.24 35.747C107.859 35.9597 107.43 36.066 106.953 36.066ZM113.946 36.066C113.36 36.066 112.905 35.9083 112.582 35.593C112.26 35.2777 112.098 34.8267 112.098 34.24V28.894H113.154V34.196C113.154 34.5113 113.231 34.7533 113.385 34.922C113.547 35.0907 113.774 35.175 114.067 35.175C114.397 35.175 114.672 35.0833 114.892 34.9L115.222 35.659C115.061 35.7983 114.867 35.901 114.639 35.967C114.419 36.033 114.188 36.066 113.946 36.066ZM111.108 31.039V30.17H114.826V31.039H111.108ZM118.902 36.066C118.278 36.066 117.728 35.9377 117.252 35.681C116.782 35.4243 116.416 35.0723 116.152 34.625C115.895 34.1777 115.767 33.6643 115.767 33.085C115.767 32.5057 115.891 31.9923 116.141 31.545C116.397 31.0977 116.746 30.7493 117.186 30.5C117.633 30.2433 118.135 30.115 118.693 30.115C119.257 30.115 119.756 30.2397 120.189 30.489C120.621 30.7383 120.959 31.0903 121.201 31.545C121.45 31.9923 121.575 32.5167 121.575 33.118C121.575 33.162 121.571 33.2133 121.564 33.272C121.564 33.3307 121.56 33.3857 121.553 33.437H116.592V32.678H121.003L120.574 32.942C120.581 32.568 120.504 32.2343 120.343 31.941C120.181 31.6477 119.958 31.4203 119.672 31.259C119.393 31.0903 119.067 31.006 118.693 31.006C118.326 31.006 118 31.0903 117.714 31.259C117.428 31.4203 117.204 31.6513 117.043 31.952C116.881 32.2453 116.801 32.5827 116.801 32.964V33.14C116.801 33.5287 116.889 33.877 117.065 34.185C117.248 34.4857 117.501 34.7203 117.824 34.889C118.146 35.0577 118.517 35.142 118.935 35.142C119.279 35.142 119.591 35.0833 119.87 34.966C120.156 34.8487 120.405 34.6727 120.618 34.438L121.201 35.12C120.937 35.428 120.607 35.6627 120.211 35.824C119.822 35.9853 119.386 36.066 118.902 36.066ZM126.132 36.066C125.633 36.066 125.182 35.956 124.779 35.736C124.383 35.5087 124.068 35.175 123.833 34.735C123.606 34.295 123.492 33.745 123.492 33.085C123.492 32.425 123.609 31.875 123.844 31.435C124.086 30.995 124.405 30.665 124.801 30.445C125.204 30.225 125.648 30.115 126.132 30.115C126.704 30.115 127.21 30.2397 127.65 30.489C128.09 30.7383 128.438 31.0867 128.695 31.534C128.952 31.974 129.08 32.491 129.08 33.085C129.08 33.679 128.952 34.1997 128.695 34.647C128.438 35.0943 128.09 35.4427 127.65 35.692C127.21 35.9413 126.704 36.066 126.132 36.066ZM123.041 36V27.838H124.097V31.721L123.987 33.074L124.053 34.427V36H123.041ZM126.044 35.142C126.418 35.142 126.752 35.0577 127.045 34.889C127.346 34.7203 127.58 34.482 127.749 34.174C127.925 33.8587 128.013 33.4957 128.013 33.085C128.013 32.667 127.925 32.3077 127.749 32.007C127.58 31.699 127.346 31.4607 127.045 31.292C126.752 31.1233 126.418 31.039 126.044 31.039C125.677 31.039 125.344 31.1233 125.043 31.292C124.75 31.4607 124.515 31.699 124.339 32.007C124.17 32.3077 124.086 32.667 124.086 33.085C124.086 33.4957 124.17 33.8587 124.339 34.174C124.515 34.482 124.75 34.7203 125.043 34.889C125.344 35.0577 125.677 35.142 126.044 35.142ZM133.036 36.066C132.449 36.066 131.929 35.9377 131.474 35.681C131.019 35.4243 130.66 35.0723 130.396 34.625C130.132 34.1703 130 33.657 130 33.085C130 32.5057 130.132 31.9923 130.396 31.545C130.66 31.0977 131.019 30.7493 131.474 30.5C131.929 30.2433 132.449 30.115 133.036 30.115C133.615 30.115 134.132 30.2433 134.587 30.5C135.049 30.7493 135.408 31.0977 135.665 31.545C135.929 31.985 136.061 32.4983 136.061 33.085C136.061 33.6643 135.929 34.1777 135.665 34.625C135.408 35.0723 135.049 35.4243 134.587 35.681C134.132 35.9377 133.615 36.066 133.036 36.066ZM133.036 35.142C133.41 35.142 133.744 35.0577 134.037 34.889C134.338 34.7203 134.572 34.482 134.741 34.174C134.91 33.8587 134.994 33.4957 134.994 33.085C134.994 32.667 134.91 32.3077 134.741 32.007C134.572 31.699 134.338 31.4607 134.037 31.292C133.744 31.1233 133.41 31.039 133.036 31.039C132.662 31.039 132.328 31.1233 132.035 31.292C131.742 31.4607 131.507 31.699 131.331 32.007C131.155 32.3077 131.067 32.667 131.067 33.085C131.067 33.4957 131.155 33.8587 131.331 34.174C131.507 34.482 131.742 34.7203 132.035 34.889C132.328 35.0577 132.662 35.142 133.036 35.142ZM137.522 36V27.838H138.578V36H137.522Z" fill="#B1B1B1"/>
<defs>
<clipPath id="clip0_794_879">
<rect width="126" height="30" fill="white"/>
</clipPath>
</defs>
</svg>
